<mxfile host="65bd71144e">
    <diagram id="_2PrKqbbGhPc8BdQqV5t" name="Page-1">
        <mxGraphModel dx="2534" dy="2932" grid="1" gridSize="10" guides="1" tooltips="1" connect="1" arrows="1" fold="1" page="1" pageScale="1" pageWidth="850" pageHeight="1100" math="0" shadow="0">
            <root>
                <mxCell id="0"/>
                <mxCell id="1" parent="0"/>
                <mxCell id="11" value="May" style="shape=table;startSize=70;container=1;collapsible=0;childLayout=tableLayout;fontStyle=1;align=center;rowLines=0;columnLines=0;strokeColor=none;" vertex="1" parent="1">
                    <mxGeometry x="80" y="40" width="670" height="515.9999999999995" as="geometry"/>
                </mxCell>
                <mxCell id="272" style="shape=tableRow;horizontal=0;startSize=0;swimlaneHead=0;swimlaneBody=0;top=0;left=0;bottom=0;right=0;collapsible=0;dropTarget=0;fillColor=none;points=[[0,0.5],[1,0.5]];portConstraint=eastwest;" vertex="1" parent="11">
                    <mxGeometry y="70" width="670" height="30" as="geometry"/>
                </mxCell>
                <mxCell id="273" value="Mon" style="shape=partialRectangle;html=1;whiteSpace=wrap;connectable=0;fillColor=default;top=0;left=0;bottom=0;right=0;overflow=hidden;strokeWidth=0;strokeColor=none;" vertex="1" parent="272">
                    <mxGeometry width="97" height="30" as="geometry">
                        <mxRectangle width="97" height="30" as="alternateBounds"/>
                    </mxGeometry>
                </mxCell>
                <mxCell id="274" value="Tue" style="shape=partialRectangle;html=1;whiteSpace=wrap;connectable=0;fillColor=default;top=0;left=0;bottom=0;right=0;overflow=hidden;strokeColor=none;" vertex="1" parent="272">
                    <mxGeometry x="97" width="93" height="30" as="geometry">
                        <mxRectangle width="93" height="30" as="alternateBounds"/>
                    </mxGeometry>
                </mxCell>
                <mxCell id="275" value="Wed" style="shape=partialRectangle;html=1;whiteSpace=wrap;connectable=0;fillColor=default;top=0;left=0;bottom=0;right=0;overflow=hidden;strokeColor=none;strokeWidth=0;" vertex="1" parent="272">
                    <mxGeometry x="190" width="98" height="30" as="geometry">
                        <mxRectangle width="98" height="30" as="alternateBounds"/>
                    </mxGeometry>
                </mxCell>
                <mxCell id="276" value="Thu" style="shape=partialRectangle;html=1;whiteSpace=wrap;connectable=0;fillColor=default;top=0;left=0;bottom=0;right=0;overflow=hidden;" vertex="1" parent="272">
                    <mxGeometry x="288" width="92" height="30" as="geometry">
                        <mxRectangle width="92" height="30" as="alternateBounds"/>
                    </mxGeometry>
                </mxCell>
                <mxCell id="277" value="Fri" style="shape=partialRectangle;html=1;whiteSpace=wrap;connectable=0;fillColor=default;top=0;left=0;bottom=0;right=0;overflow=hidden;" vertex="1" parent="272">
                    <mxGeometry x="380" width="100" height="30" as="geometry">
                        <mxRectangle width="100" height="30" as="alternateBounds"/>
                    </mxGeometry>
                </mxCell>
                <mxCell id="278" value="Sat" style="shape=partialRectangle;html=1;whiteSpace=wrap;connectable=0;fillColor=default;top=0;left=0;bottom=0;right=0;overflow=hidden;" vertex="1" parent="272">
                    <mxGeometry x="480" width="93" height="30" as="geometry">
                        <mxRectangle width="93" height="30" as="alternateBounds"/>
                    </mxGeometry>
                </mxCell>
                <mxCell id="279" value="Sun" style="shape=partialRectangle;html=1;whiteSpace=wrap;connectable=0;fillColor=default;top=0;left=0;bottom=0;right=0;overflow=hidden;" vertex="1" parent="272">
                    <mxGeometry x="573" width="97" height="30" as="geometry">
                        <mxRectangle width="97" height="30" as="alternateBounds"/>
                    </mxGeometry>
                </mxCell>
                <mxCell id="30" style="shape=tableRow;horizontal=0;startSize=0;swimlaneHead=0;swimlaneBody=0;top=0;left=0;bottom=0;right=0;collapsible=0;dropTarget=0;fillColor=none;points=[[0,0.5],[1,0.5]];portConstraint=eastwest;" vertex="1" parent="11">
                    <mxGeometry y="100" width="670" height="80" as="geometry"/>
                </mxCell>
                <mxCell id="31" value="&lt;font color=&quot;#e6e6e6&quot;&gt;29&lt;/font&gt;" style="shape=partialRectangle;html=1;whiteSpace=wrap;connectable=0;fillColor=default;top=0;left=0;bottom=0;right=0;overflow=hidden;strokeWidth=0;strokeColor=none;" vertex="1" parent="30">
                    <mxGeometry width="97" height="80" as="geometry">
                        <mxRectangle width="97" height="80" as="alternateBounds"/>
                    </mxGeometry>
                </mxCell>
                <mxCell id="32" value="&lt;font color=&quot;#e6e6e6&quot;&gt;30&lt;/font&gt;" style="shape=partialRectangle;html=1;whiteSpace=wrap;connectable=0;fillColor=default;top=0;left=0;bottom=0;right=0;overflow=hidden;strokeColor=none;" vertex="1" parent="30">
                    <mxGeometry x="97" width="93" height="80" as="geometry">
                        <mxRectangle width="93" height="80" as="alternateBounds"/>
                    </mxGeometry>
                </mxCell>
                <mxCell id="36" value="1" style="shape=partialRectangle;html=1;whiteSpace=wrap;connectable=0;fillColor=default;top=0;left=0;bottom=0;right=0;overflow=hidden;strokeColor=none;strokeWidth=0;" vertex="1" parent="30">
                    <mxGeometry x="190" width="98" height="80" as="geometry">
                        <mxRectangle width="98" height="80" as="alternateBounds"/>
                    </mxGeometry>
                </mxCell>
                <mxCell id="41" value="2" style="shape=partialRectangle;html=1;whiteSpace=wrap;connectable=0;fillColor=default;top=0;left=0;bottom=0;right=0;overflow=hidden;" vertex="1" parent="30">
                    <mxGeometry x="288" width="92" height="80" as="geometry">
                        <mxRectangle width="92" height="80" as="alternateBounds"/>
                    </mxGeometry>
                </mxCell>
                <mxCell id="46" value="3" style="shape=partialRectangle;html=1;whiteSpace=wrap;connectable=0;fillColor=default;top=0;left=0;bottom=0;right=0;overflow=hidden;" vertex="1" parent="30">
                    <mxGeometry x="380" width="100" height="80" as="geometry">
                        <mxRectangle width="100" height="80" as="alternateBounds"/>
                    </mxGeometry>
                </mxCell>
                <mxCell id="51" value="4" style="shape=partialRectangle;html=1;whiteSpace=wrap;connectable=0;fillColor=default;top=0;left=0;bottom=0;right=0;overflow=hidden;" vertex="1" parent="30">
                    <mxGeometry x="480" width="93" height="80" as="geometry">
                        <mxRectangle width="93" height="80" as="alternateBounds"/>
                    </mxGeometry>
                </mxCell>
                <mxCell id="56" value="5" style="shape=partialRectangle;html=1;whiteSpace=wrap;connectable=0;fillColor=default;top=0;left=0;bottom=0;right=0;overflow=hidden;" vertex="1" parent="30">
                    <mxGeometry x="573" width="97" height="80" as="geometry">
                        <mxRectangle width="97" height="80" as="alternateBounds"/>
                    </mxGeometry>
                </mxCell>
                <mxCell id="16" value="" style="shape=tableRow;horizontal=0;startSize=0;swimlaneHead=0;swimlaneBody=0;top=0;left=0;bottom=0;right=0;collapsible=0;dropTarget=0;fillColor=none;points=[[0,0.5],[1,0.5]];portConstraint=eastwest;" vertex="1" parent="11">
                    <mxGeometry y="180" width="670" height="84" as="geometry"/>
                </mxCell>
                <mxCell id="17" value="6" style="shape=partialRectangle;html=1;whiteSpace=wrap;connectable=0;fillColor=default;top=0;left=0;bottom=0;right=0;overflow=hidden;strokeColor=none;strokeWidth=0;" vertex="1" parent="16">
                    <mxGeometry width="97" height="84" as="geometry">
                        <mxRectangle width="97" height="84" as="alternateBounds"/>
                    </mxGeometry>
                </mxCell>
                <mxCell id="18" value="7" style="shape=partialRectangle;html=1;whiteSpace=wrap;connectable=0;fillColor=default;top=0;left=0;bottom=0;right=0;overflow=hidden;" vertex="1" parent="16">
                    <mxGeometry x="97" width="93" height="84" as="geometry">
                        <mxRectangle width="93" height="84" as="alternateBounds"/>
                    </mxGeometry>
                </mxCell>
                <mxCell id="37" value="8" style="shape=partialRectangle;html=1;whiteSpace=wrap;connectable=0;fillColor=default;top=0;left=0;bottom=0;right=0;overflow=hidden;" vertex="1" parent="16">
                    <mxGeometry x="190" width="98" height="84" as="geometry">
                        <mxRectangle width="98" height="84" as="alternateBounds"/>
                    </mxGeometry>
                </mxCell>
                <mxCell id="42" value="9" style="shape=partialRectangle;html=1;whiteSpace=wrap;connectable=0;fillColor=default;top=0;left=0;bottom=0;right=0;overflow=hidden;" vertex="1" parent="16">
                    <mxGeometry x="288" width="92" height="84" as="geometry">
                        <mxRectangle width="92" height="84" as="alternateBounds"/>
                    </mxGeometry>
                </mxCell>
                <mxCell id="47" value="10" style="shape=partialRectangle;html=1;whiteSpace=wrap;connectable=0;fillColor=default;top=0;left=0;bottom=0;right=0;overflow=hidden;" vertex="1" parent="16">
                    <mxGeometry x="380" width="100" height="84" as="geometry">
                        <mxRectangle width="100" height="84" as="alternateBounds"/>
                    </mxGeometry>
                </mxCell>
                <mxCell id="52" value="11" style="shape=partialRectangle;html=1;whiteSpace=wrap;connectable=0;fillColor=default;top=0;left=0;bottom=0;right=0;overflow=hidden;" vertex="1" parent="16">
                    <mxGeometry x="480" width="93" height="84" as="geometry">
                        <mxRectangle width="93" height="84" as="alternateBounds"/>
                    </mxGeometry>
                </mxCell>
                <mxCell id="57" value="12" style="shape=partialRectangle;html=1;whiteSpace=wrap;connectable=0;fillColor=default;top=0;left=0;bottom=0;right=0;overflow=hidden;" vertex="1" parent="16">
                    <mxGeometry x="573" width="97" height="84" as="geometry">
                        <mxRectangle width="97" height="84" as="alternateBounds"/>
                    </mxGeometry>
                </mxCell>
                <mxCell id="20" value="" style="shape=tableRow;horizontal=0;startSize=0;swimlaneHead=0;swimlaneBody=0;top=0;left=0;bottom=0;right=0;collapsible=0;dropTarget=0;fillColor=none;points=[[0,0.5],[1,0.5]];portConstraint=eastwest;" vertex="1" parent="11">
                    <mxGeometry y="264" width="670" height="84" as="geometry"/>
                </mxCell>
                <mxCell id="21" value="13" style="shape=partialRectangle;html=1;whiteSpace=wrap;connectable=0;fillColor=default;top=0;left=0;bottom=0;right=0;overflow=hidden;" vertex="1" parent="20">
                    <mxGeometry width="97" height="84" as="geometry">
                        <mxRectangle width="97" height="84" as="alternateBounds"/>
                    </mxGeometry>
                </mxCell>
                <mxCell id="22" value="14" style="shape=partialRectangle;html=1;whiteSpace=wrap;connectable=0;fillColor=default;top=0;left=0;bottom=0;right=0;overflow=hidden;" vertex="1" parent="20">
                    <mxGeometry x="97" width="93" height="84" as="geometry">
                        <mxRectangle width="93" height="84" as="alternateBounds"/>
                    </mxGeometry>
                </mxCell>
                <mxCell id="38" value="15" style="shape=partialRectangle;html=1;whiteSpace=wrap;connectable=0;fillColor=default;top=0;left=0;bottom=0;right=0;overflow=hidden;" vertex="1" parent="20">
                    <mxGeometry x="190" width="98" height="84" as="geometry">
                        <mxRectangle width="98" height="84" as="alternateBounds"/>
                    </mxGeometry>
                </mxCell>
                <mxCell id="43" value="16" style="shape=partialRectangle;html=1;whiteSpace=wrap;connectable=0;fillColor=default;top=0;left=0;bottom=0;right=0;overflow=hidden;" vertex="1" parent="20">
                    <mxGeometry x="288" width="92" height="84" as="geometry">
                        <mxRectangle width="92" height="84" as="alternateBounds"/>
                    </mxGeometry>
                </mxCell>
                <mxCell id="48" value="17" style="shape=partialRectangle;html=1;whiteSpace=wrap;connectable=0;fillColor=default;top=0;left=0;bottom=0;right=0;overflow=hidden;" vertex="1" parent="20">
                    <mxGeometry x="380" width="100" height="84" as="geometry">
                        <mxRectangle width="100" height="84" as="alternateBounds"/>
                    </mxGeometry>
                </mxCell>
                <mxCell id="53" value="18" style="shape=partialRectangle;html=1;whiteSpace=wrap;connectable=0;fillColor=default;top=0;left=0;bottom=0;right=0;overflow=hidden;" vertex="1" parent="20">
                    <mxGeometry x="480" width="93" height="84" as="geometry">
                        <mxRectangle width="93" height="84" as="alternateBounds"/>
                    </mxGeometry>
                </mxCell>
                <mxCell id="58" value="19" style="shape=partialRectangle;html=1;whiteSpace=wrap;connectable=0;fillColor=default;top=0;left=0;bottom=0;right=0;overflow=hidden;" vertex="1" parent="20">
                    <mxGeometry x="573" width="97" height="84" as="geometry">
                        <mxRectangle width="97" height="84" as="alternateBounds"/>
                    </mxGeometry>
                </mxCell>
                <mxCell id="69" value="" style="shape=tableRow;horizontal=0;startSize=0;swimlaneHead=0;swimlaneBody=0;top=0;left=0;bottom=0;right=0;collapsible=0;dropTarget=0;fillColor=none;points=[[0,0.5],[1,0.5]];portConstraint=eastwest;" vertex="1" parent="11">
                    <mxGeometry y="348" width="670" height="84" as="geometry"/>
                </mxCell>
                <mxCell id="70" value="20" style="shape=partialRectangle;html=1;whiteSpace=wrap;connectable=0;fillColor=default;top=0;left=0;bottom=0;right=0;overflow=hidden;" vertex="1" parent="69">
                    <mxGeometry width="97" height="84" as="geometry">
                        <mxRectangle width="97" height="84" as="alternateBounds"/>
                    </mxGeometry>
                </mxCell>
                <mxCell id="71" value="21" style="shape=partialRectangle;html=1;whiteSpace=wrap;connectable=0;fillColor=default;top=0;left=0;bottom=0;right=0;overflow=hidden;" vertex="1" parent="69">
                    <mxGeometry x="97" width="93" height="84" as="geometry">
                        <mxRectangle width="93" height="84" as="alternateBounds"/>
                    </mxGeometry>
                </mxCell>
                <mxCell id="72" value="22" style="shape=partialRectangle;html=1;whiteSpace=wrap;connectable=0;fillColor=default;top=0;left=0;bottom=0;right=0;overflow=hidden;" vertex="1" parent="69">
                    <mxGeometry x="190" width="98" height="84" as="geometry">
                        <mxRectangle width="98" height="84" as="alternateBounds"/>
                    </mxGeometry>
                </mxCell>
                <mxCell id="73" value="23" style="shape=partialRectangle;html=1;whiteSpace=wrap;connectable=0;fillColor=default;top=0;left=0;bottom=0;right=0;overflow=hidden;" vertex="1" parent="69">
                    <mxGeometry x="288" width="92" height="84" as="geometry">
                        <mxRectangle width="92" height="84" as="alternateBounds"/>
                    </mxGeometry>
                </mxCell>
                <mxCell id="74" value="24" style="shape=partialRectangle;html=1;whiteSpace=wrap;connectable=0;fillColor=default;top=0;left=0;bottom=0;right=0;overflow=hidden;" vertex="1" parent="69">
                    <mxGeometry x="380" width="100" height="84" as="geometry">
                        <mxRectangle width="100" height="84" as="alternateBounds"/>
                    </mxGeometry>
                </mxCell>
                <mxCell id="75" value="25" style="shape=partialRectangle;html=1;whiteSpace=wrap;connectable=0;fillColor=default;top=0;left=0;bottom=0;right=0;overflow=hidden;" vertex="1" parent="69">
                    <mxGeometry x="480" width="93" height="84" as="geometry">
                        <mxRectangle width="93" height="84" as="alternateBounds"/>
                    </mxGeometry>
                </mxCell>
                <mxCell id="76" value="26" style="shape=partialRectangle;html=1;whiteSpace=wrap;connectable=0;fillColor=default;top=0;left=0;bottom=0;right=0;overflow=hidden;" vertex="1" parent="69">
                    <mxGeometry x="573" width="97" height="84" as="geometry">
                        <mxRectangle width="97" height="84" as="alternateBounds"/>
                    </mxGeometry>
                </mxCell>
                <mxCell id="27" style="shape=tableRow;horizontal=0;startSize=0;swimlaneHead=0;swimlaneBody=0;top=0;left=0;bottom=0;right=0;collapsible=0;dropTarget=0;fillColor=none;points=[[0,0.5],[1,0.5]];portConstraint=eastwest;" vertex="1" parent="11">
                    <mxGeometry y="432" width="670" height="84" as="geometry"/>
                </mxCell>
                <mxCell id="28" value="27" style="shape=partialRectangle;html=1;whiteSpace=wrap;connectable=0;fillColor=default;top=0;left=0;bottom=0;right=0;overflow=hidden;" vertex="1" parent="27">
                    <mxGeometry width="97" height="84" as="geometry">
                        <mxRectangle width="97" height="84" as="alternateBounds"/>
                    </mxGeometry>
                </mxCell>
                <mxCell id="29" value="28" style="shape=partialRectangle;html=1;whiteSpace=wrap;connectable=0;fillColor=default;top=0;left=0;bottom=0;right=0;overflow=hidden;" vertex="1" parent="27">
                    <mxGeometry x="97" width="93" height="84" as="geometry">
                        <mxRectangle width="93" height="84" as="alternateBounds"/>
                    </mxGeometry>
                </mxCell>
                <mxCell id="39" value="29" style="shape=partialRectangle;html=1;whiteSpace=wrap;connectable=0;fillColor=default;top=0;left=0;bottom=0;right=0;overflow=hidden;" vertex="1" parent="27">
                    <mxGeometry x="190" width="98" height="84" as="geometry">
                        <mxRectangle width="98" height="84" as="alternateBounds"/>
                    </mxGeometry>
                </mxCell>
                <mxCell id="44" value="30" style="shape=partialRectangle;html=1;whiteSpace=wrap;connectable=0;fillColor=default;top=0;left=0;bottom=0;right=0;overflow=hidden;" vertex="1" parent="27">
                    <mxGeometry x="288" width="92" height="84" as="geometry">
                        <mxRectangle width="92" height="84" as="alternateBounds"/>
                    </mxGeometry>
                </mxCell>
                <mxCell id="49" value="31" style="shape=partialRectangle;html=1;whiteSpace=wrap;connectable=0;fillColor=default;top=0;left=0;bottom=0;right=0;overflow=hidden;" vertex="1" parent="27">
                    <mxGeometry x="380" width="100" height="84" as="geometry">
                        <mxRectangle width="100" height="84" as="alternateBounds"/>
                    </mxGeometry>
                </mxCell>
                <mxCell id="54" value="&lt;font color=&quot;#e6e6e6&quot;&gt;1&lt;/font&gt;" style="shape=partialRectangle;html=1;whiteSpace=wrap;connectable=0;fillColor=default;top=0;left=0;bottom=0;right=0;overflow=hidden;" vertex="1" parent="27">
                    <mxGeometry x="480" width="93" height="84" as="geometry">
                        <mxRectangle width="93" height="84" as="alternateBounds"/>
                    </mxGeometry>
                </mxCell>
                <mxCell id="59" value="&lt;font color=&quot;#e6e6e6&quot;&gt;2&lt;/font&gt;" style="shape=partialRectangle;html=1;whiteSpace=wrap;connectable=0;fillColor=default;top=0;left=0;bottom=0;right=0;overflow=hidden;" vertex="1" parent="27">
                    <mxGeometry x="573" width="97" height="84" as="geometry">
                        <mxRectangle width="97" height="84" as="alternateBounds"/>
                    </mxGeometry>
                </mxCell>
                <mxCell id="125" value="" style="ellipse;whiteSpace=wrap;html=1;aspect=fixed;fillColor=default;shadow=0;" vertex="1" parent="1">
                    <mxGeometry x="290" y="53.75" width="47.5" height="47.5" as="geometry"/>
                </mxCell>
                <mxCell id="126" value="&amp;lt;" style="text;strokeColor=none;align=center;fillColor=none;html=1;verticalAlign=middle;whiteSpace=wrap;rounded=0;shadow=0;" vertex="1" parent="1">
                    <mxGeometry x="283.75" y="62.5" width="60" height="30" as="geometry"/>
                </mxCell>
                <mxCell id="127" value="" style="ellipse;whiteSpace=wrap;html=1;aspect=fixed;fillColor=default;shadow=0;" vertex="1" parent="1">
                    <mxGeometry x="486.25" y="53.75" width="47.5" height="47.5" as="geometry"/>
                </mxCell>
                <mxCell id="128" value="&amp;gt;" style="text;strokeColor=none;align=center;fillColor=none;html=1;verticalAlign=middle;whiteSpace=wrap;rounded=0;shadow=0;" vertex="1" parent="1">
                    <mxGeometry x="480" y="60" width="60" height="32.5" as="geometry"/>
                </mxCell>
                <mxCell id="219" value="June" style="shape=table;startSize=70;container=1;collapsible=0;childLayout=tableLayout;fontStyle=1;align=center;rowLines=0;columnLines=0;strokeColor=none;" vertex="1" parent="1">
                    <mxGeometry x="80" y="670" width="670" height="516" as="geometry"/>
                </mxCell>
                <mxCell id="280" style="shape=tableRow;horizontal=0;startSize=0;swimlaneHead=0;swimlaneBody=0;top=0;left=0;bottom=0;right=0;collapsible=0;dropTarget=0;fillColor=none;points=[[0,0.5],[1,0.5]];portConstraint=eastwest;" vertex="1" parent="219">
                    <mxGeometry y="70" width="670" height="30" as="geometry"/>
                </mxCell>
                <mxCell id="281" value="Mon" style="shape=partialRectangle;html=1;whiteSpace=wrap;connectable=0;fillColor=default;top=0;left=0;bottom=0;right=0;overflow=hidden;strokeWidth=0;strokeColor=none;" vertex="1" parent="280">
                    <mxGeometry width="97" height="30" as="geometry">
                        <mxRectangle width="97" height="30" as="alternateBounds"/>
                    </mxGeometry>
                </mxCell>
                <mxCell id="282" value="Tue" style="shape=partialRectangle;html=1;whiteSpace=wrap;connectable=0;fillColor=default;top=0;left=0;bottom=0;right=0;overflow=hidden;strokeColor=none;" vertex="1" parent="280">
                    <mxGeometry x="97" width="95" height="30" as="geometry">
                        <mxRectangle width="95" height="30" as="alternateBounds"/>
                    </mxGeometry>
                </mxCell>
                <mxCell id="283" value="Wed" style="shape=partialRectangle;html=1;whiteSpace=wrap;connectable=0;fillColor=default;top=0;left=0;bottom=0;right=0;overflow=hidden;strokeColor=none;strokeWidth=0;fontColor=#000000;" vertex="1" parent="280">
                    <mxGeometry x="192" width="96" height="30" as="geometry">
                        <mxRectangle width="96" height="30" as="alternateBounds"/>
                    </mxGeometry>
                </mxCell>
                <mxCell id="284" value="Thu" style="shape=partialRectangle;html=1;whiteSpace=wrap;connectable=0;fillColor=default;top=0;left=0;bottom=0;right=0;overflow=hidden;fontColor=#000000;" vertex="1" parent="280">
                    <mxGeometry x="288" width="96" height="30" as="geometry">
                        <mxRectangle width="96" height="30" as="alternateBounds"/>
                    </mxGeometry>
                </mxCell>
                <mxCell id="285" value="Fri" style="shape=partialRectangle;html=1;whiteSpace=wrap;connectable=0;fillColor=default;top=0;left=0;bottom=0;right=0;overflow=hidden;fontColor=#000000;" vertex="1" parent="280">
                    <mxGeometry x="384" width="94" height="30" as="geometry">
                        <mxRectangle width="94" height="30" as="alternateBounds"/>
                    </mxGeometry>
                </mxCell>
                <mxCell id="286" value="Sat" style="shape=partialRectangle;html=1;whiteSpace=wrap;connectable=0;fillColor=default;top=0;left=0;bottom=0;right=0;overflow=hidden;" vertex="1" parent="280">
                    <mxGeometry x="478" width="95" height="30" as="geometry">
                        <mxRectangle width="95" height="30" as="alternateBounds"/>
                    </mxGeometry>
                </mxCell>
                <mxCell id="287" value="Sun" style="shape=partialRectangle;html=1;whiteSpace=wrap;connectable=0;fillColor=default;top=0;left=0;bottom=0;right=0;overflow=hidden;" vertex="1" parent="280">
                    <mxGeometry x="573" width="97" height="30" as="geometry">
                        <mxRectangle width="97" height="30" as="alternateBounds"/>
                    </mxGeometry>
                </mxCell>
                <mxCell id="220" style="shape=tableRow;horizontal=0;startSize=0;swimlaneHead=0;swimlaneBody=0;top=0;left=0;bottom=0;right=0;collapsible=0;dropTarget=0;fillColor=none;points=[[0,0.5],[1,0.5]];portConstraint=eastwest;" vertex="1" parent="219">
                    <mxGeometry y="100" width="670" height="80" as="geometry"/>
                </mxCell>
                <mxCell id="221" value="&lt;font color=&quot;#e6e6e6&quot;&gt;27&lt;/font&gt;" style="shape=partialRectangle;html=1;whiteSpace=wrap;connectable=0;fillColor=default;top=0;left=0;bottom=0;right=0;overflow=hidden;strokeWidth=0;strokeColor=none;" vertex="1" parent="220">
                    <mxGeometry width="97" height="80" as="geometry">
                        <mxRectangle width="97" height="80" as="alternateBounds"/>
                    </mxGeometry>
                </mxCell>
                <mxCell id="222" value="&lt;font color=&quot;#e6e6e6&quot;&gt;28&lt;/font&gt;" style="shape=partialRectangle;html=1;whiteSpace=wrap;connectable=0;fillColor=default;top=0;left=0;bottom=0;right=0;overflow=hidden;strokeColor=none;" vertex="1" parent="220">
                    <mxGeometry x="97" width="95" height="80" as="geometry">
                        <mxRectangle width="95" height="80" as="alternateBounds"/>
                    </mxGeometry>
                </mxCell>
                <mxCell id="223" value="29" style="shape=partialRectangle;html=1;whiteSpace=wrap;connectable=0;fillColor=default;top=0;left=0;bottom=0;right=0;overflow=hidden;strokeColor=none;strokeWidth=0;fontColor=#E6E6E6;" vertex="1" parent="220">
                    <mxGeometry x="192" width="96" height="80" as="geometry">
                        <mxRectangle width="96" height="80" as="alternateBounds"/>
                    </mxGeometry>
                </mxCell>
                <mxCell id="224" value="30" style="shape=partialRectangle;html=1;whiteSpace=wrap;connectable=0;fillColor=default;top=0;left=0;bottom=0;right=0;overflow=hidden;fontColor=#E6E6E6;" vertex="1" parent="220">
                    <mxGeometry x="288" width="96" height="80" as="geometry">
                        <mxRectangle width="96" height="80" as="alternateBounds"/>
                    </mxGeometry>
                </mxCell>
                <mxCell id="225" value="31" style="shape=partialRectangle;html=1;whiteSpace=wrap;connectable=0;fillColor=default;top=0;left=0;bottom=0;right=0;overflow=hidden;fontColor=#E6E6E6;" vertex="1" parent="220">
                    <mxGeometry x="384" width="94" height="80" as="geometry">
                        <mxRectangle width="94" height="80" as="alternateBounds"/>
                    </mxGeometry>
                </mxCell>
                <mxCell id="226" value="1" style="shape=partialRectangle;html=1;whiteSpace=wrap;connectable=0;fillColor=default;top=0;left=0;bottom=0;right=0;overflow=hidden;" vertex="1" parent="220">
                    <mxGeometry x="478" width="95" height="80" as="geometry">
                        <mxRectangle width="95" height="80" as="alternateBounds"/>
                    </mxGeometry>
                </mxCell>
                <mxCell id="227" value="2" style="shape=partialRectangle;html=1;whiteSpace=wrap;connectable=0;fillColor=default;top=0;left=0;bottom=0;right=0;overflow=hidden;" vertex="1" parent="220">
                    <mxGeometry x="573" width="97" height="80" as="geometry">
                        <mxRectangle width="97" height="80" as="alternateBounds"/>
                    </mxGeometry>
                </mxCell>
                <mxCell id="228" value="" style="shape=tableRow;horizontal=0;startSize=0;swimlaneHead=0;swimlaneBody=0;top=0;left=0;bottom=0;right=0;collapsible=0;dropTarget=0;fillColor=none;points=[[0,0.5],[1,0.5]];portConstraint=eastwest;" vertex="1" parent="219">
                    <mxGeometry y="180" width="670" height="84" as="geometry"/>
                </mxCell>
                <mxCell id="229" value="3" style="shape=partialRectangle;html=1;whiteSpace=wrap;connectable=0;fillColor=default;top=0;left=0;bottom=0;right=0;overflow=hidden;strokeColor=none;strokeWidth=0;" vertex="1" parent="228">
                    <mxGeometry width="97" height="84" as="geometry">
                        <mxRectangle width="97" height="84" as="alternateBounds"/>
                    </mxGeometry>
                </mxCell>
                <mxCell id="230" value="4" style="shape=partialRectangle;html=1;whiteSpace=wrap;connectable=0;fillColor=default;top=0;left=0;bottom=0;right=0;overflow=hidden;" vertex="1" parent="228">
                    <mxGeometry x="97" width="95" height="84" as="geometry">
                        <mxRectangle width="95" height="84" as="alternateBounds"/>
                    </mxGeometry>
                </mxCell>
                <mxCell id="231" value="5" style="shape=partialRectangle;html=1;whiteSpace=wrap;connectable=0;fillColor=default;top=0;left=0;bottom=0;right=0;overflow=hidden;" vertex="1" parent="228">
                    <mxGeometry x="192" width="96" height="84" as="geometry">
                        <mxRectangle width="96" height="84" as="alternateBounds"/>
                    </mxGeometry>
                </mxCell>
                <mxCell id="232" value="6" style="shape=partialRectangle;html=1;whiteSpace=wrap;connectable=0;fillColor=default;top=0;left=0;bottom=0;right=0;overflow=hidden;" vertex="1" parent="228">
                    <mxGeometry x="288" width="96" height="84" as="geometry">
                        <mxRectangle width="96" height="84" as="alternateBounds"/>
                    </mxGeometry>
                </mxCell>
                <mxCell id="233" value="7" style="shape=partialRectangle;html=1;whiteSpace=wrap;connectable=0;fillColor=default;top=0;left=0;bottom=0;right=0;overflow=hidden;" vertex="1" parent="228">
                    <mxGeometry x="384" width="94" height="84" as="geometry">
                        <mxRectangle width="94" height="84" as="alternateBounds"/>
                    </mxGeometry>
                </mxCell>
                <mxCell id="234" value="8" style="shape=partialRectangle;html=1;whiteSpace=wrap;connectable=0;fillColor=default;top=0;left=0;bottom=0;right=0;overflow=hidden;" vertex="1" parent="228">
                    <mxGeometry x="478" width="95" height="84" as="geometry">
                        <mxRectangle width="95" height="84" as="alternateBounds"/>
                    </mxGeometry>
                </mxCell>
                <mxCell id="235" value="9" style="shape=partialRectangle;html=1;whiteSpace=wrap;connectable=0;fillColor=default;top=0;left=0;bottom=0;right=0;overflow=hidden;" vertex="1" parent="228">
                    <mxGeometry x="573" width="97" height="84" as="geometry">
                        <mxRectangle width="97" height="84" as="alternateBounds"/>
                    </mxGeometry>
                </mxCell>
                <mxCell id="236" value="" style="shape=tableRow;horizontal=0;startSize=0;swimlaneHead=0;swimlaneBody=0;top=0;left=0;bottom=0;right=0;collapsible=0;dropTarget=0;fillColor=none;points=[[0,0.5],[1,0.5]];portConstraint=eastwest;" vertex="1" parent="219">
                    <mxGeometry y="264" width="670" height="84" as="geometry"/>
                </mxCell>
                <mxCell id="237" value="10" style="shape=partialRectangle;html=1;whiteSpace=wrap;connectable=0;fillColor=default;top=0;left=0;bottom=0;right=0;overflow=hidden;" vertex="1" parent="236">
                    <mxGeometry width="97" height="84" as="geometry">
                        <mxRectangle width="97" height="84" as="alternateBounds"/>
                    </mxGeometry>
                </mxCell>
                <mxCell id="238" value="11" style="shape=partialRectangle;html=1;whiteSpace=wrap;connectable=0;fillColor=default;top=0;left=0;bottom=0;right=0;overflow=hidden;" vertex="1" parent="236">
                    <mxGeometry x="97" width="95" height="84" as="geometry">
                        <mxRectangle width="95" height="84" as="alternateBounds"/>
                    </mxGeometry>
                </mxCell>
                <mxCell id="239" value="12" style="shape=partialRectangle;html=1;whiteSpace=wrap;connectable=0;fillColor=default;top=0;left=0;bottom=0;right=0;overflow=hidden;" vertex="1" parent="236">
                    <mxGeometry x="192" width="96" height="84" as="geometry">
                        <mxRectangle width="96" height="84" as="alternateBounds"/>
                    </mxGeometry>
                </mxCell>
                <mxCell id="240" value="13" style="shape=partialRectangle;html=1;whiteSpace=wrap;connectable=0;fillColor=default;top=0;left=0;bottom=0;right=0;overflow=hidden;" vertex="1" parent="236">
                    <mxGeometry x="288" width="96" height="84" as="geometry">
                        <mxRectangle width="96" height="84" as="alternateBounds"/>
                    </mxGeometry>
                </mxCell>
                <mxCell id="241" value="14" style="shape=partialRectangle;html=1;whiteSpace=wrap;connectable=0;fillColor=default;top=0;left=0;bottom=0;right=0;overflow=hidden;" vertex="1" parent="236">
                    <mxGeometry x="384" width="94" height="84" as="geometry">
                        <mxRectangle width="94" height="84" as="alternateBounds"/>
                    </mxGeometry>
                </mxCell>
                <mxCell id="242" value="15" style="shape=partialRectangle;html=1;whiteSpace=wrap;connectable=0;fillColor=default;top=0;left=0;bottom=0;right=0;overflow=hidden;" vertex="1" parent="236">
                    <mxGeometry x="478" width="95" height="84" as="geometry">
                        <mxRectangle width="95" height="84" as="alternateBounds"/>
                    </mxGeometry>
                </mxCell>
                <mxCell id="243" value="16" style="shape=partialRectangle;html=1;whiteSpace=wrap;connectable=0;fillColor=default;top=0;left=0;bottom=0;right=0;overflow=hidden;" vertex="1" parent="236">
                    <mxGeometry x="573" width="97" height="84" as="geometry">
                        <mxRectangle width="97" height="84" as="alternateBounds"/>
                    </mxGeometry>
                </mxCell>
                <mxCell id="244" value="" style="shape=tableRow;horizontal=0;startSize=0;swimlaneHead=0;swimlaneBody=0;top=0;left=0;bottom=0;right=0;collapsible=0;dropTarget=0;fillColor=none;points=[[0,0.5],[1,0.5]];portConstraint=eastwest;" vertex="1" parent="219">
                    <mxGeometry y="348" width="670" height="84" as="geometry"/>
                </mxCell>
                <mxCell id="245" value="17" style="shape=partialRectangle;html=1;whiteSpace=wrap;connectable=0;fillColor=default;top=0;left=0;bottom=0;right=0;overflow=hidden;" vertex="1" parent="244">
                    <mxGeometry width="97" height="84" as="geometry">
                        <mxRectangle width="97" height="84" as="alternateBounds"/>
                    </mxGeometry>
                </mxCell>
                <mxCell id="246" value="18" style="shape=partialRectangle;html=1;whiteSpace=wrap;connectable=0;fillColor=default;top=0;left=0;bottom=0;right=0;overflow=hidden;" vertex="1" parent="244">
                    <mxGeometry x="97" width="95" height="84" as="geometry">
                        <mxRectangle width="95" height="84" as="alternateBounds"/>
                    </mxGeometry>
                </mxCell>
                <mxCell id="247" value="19" style="shape=partialRectangle;html=1;whiteSpace=wrap;connectable=0;fillColor=default;top=0;left=0;bottom=0;right=0;overflow=hidden;" vertex="1" parent="244">
                    <mxGeometry x="192" width="96" height="84" as="geometry">
                        <mxRectangle width="96" height="84" as="alternateBounds"/>
                    </mxGeometry>
                </mxCell>
                <mxCell id="248" value="20" style="shape=partialRectangle;html=1;whiteSpace=wrap;connectable=0;fillColor=default;top=0;left=0;bottom=0;right=0;overflow=hidden;" vertex="1" parent="244">
                    <mxGeometry x="288" width="96" height="84" as="geometry">
                        <mxRectangle width="96" height="84" as="alternateBounds"/>
                    </mxGeometry>
                </mxCell>
                <mxCell id="249" value="21" style="shape=partialRectangle;html=1;whiteSpace=wrap;connectable=0;fillColor=default;top=0;left=0;bottom=0;right=0;overflow=hidden;" vertex="1" parent="244">
                    <mxGeometry x="384" width="94" height="84" as="geometry">
                        <mxRectangle width="94" height="84" as="alternateBounds"/>
                    </mxGeometry>
                </mxCell>
                <mxCell id="250" value="22" style="shape=partialRectangle;html=1;whiteSpace=wrap;connectable=0;fillColor=default;top=0;left=0;bottom=0;right=0;overflow=hidden;" vertex="1" parent="244">
                    <mxGeometry x="478" width="95" height="84" as="geometry">
                        <mxRectangle width="95" height="84" as="alternateBounds"/>
                    </mxGeometry>
                </mxCell>
                <mxCell id="251" value="23" style="shape=partialRectangle;html=1;whiteSpace=wrap;connectable=0;fillColor=default;top=0;left=0;bottom=0;right=0;overflow=hidden;" vertex="1" parent="244">
                    <mxGeometry x="573" width="97" height="84" as="geometry">
                        <mxRectangle width="97" height="84" as="alternateBounds"/>
                    </mxGeometry>
                </mxCell>
                <mxCell id="252" style="shape=tableRow;horizontal=0;startSize=0;swimlaneHead=0;swimlaneBody=0;top=0;left=0;bottom=0;right=0;collapsible=0;dropTarget=0;fillColor=none;points=[[0,0.5],[1,0.5]];portConstraint=eastwest;" vertex="1" parent="219">
                    <mxGeometry y="432" width="670" height="84" as="geometry"/>
                </mxCell>
                <mxCell id="253" value="24" style="shape=partialRectangle;html=1;whiteSpace=wrap;connectable=0;fillColor=default;top=0;left=0;bottom=0;right=0;overflow=hidden;" vertex="1" parent="252">
                    <mxGeometry width="97" height="84" as="geometry">
                        <mxRectangle width="97" height="84" as="alternateBounds"/>
                    </mxGeometry>
                </mxCell>
                <mxCell id="254" value="25" style="shape=partialRectangle;html=1;whiteSpace=wrap;connectable=0;fillColor=default;top=0;left=0;bottom=0;right=0;overflow=hidden;" vertex="1" parent="252">
                    <mxGeometry x="97" width="95" height="84" as="geometry">
                        <mxRectangle width="95" height="84" as="alternateBounds"/>
                    </mxGeometry>
                </mxCell>
                <mxCell id="255" value="26" style="shape=partialRectangle;html=1;whiteSpace=wrap;connectable=0;fillColor=default;top=0;left=0;bottom=0;right=0;overflow=hidden;" vertex="1" parent="252">
                    <mxGeometry x="192" width="96" height="84" as="geometry">
                        <mxRectangle width="96" height="84" as="alternateBounds"/>
                    </mxGeometry>
                </mxCell>
                <mxCell id="256" value="27" style="shape=partialRectangle;html=1;whiteSpace=wrap;connectable=0;fillColor=default;top=0;left=0;bottom=0;right=0;overflow=hidden;" vertex="1" parent="252">
                    <mxGeometry x="288" width="96" height="84" as="geometry">
                        <mxRectangle width="96" height="84" as="alternateBounds"/>
                    </mxGeometry>
                </mxCell>
                <mxCell id="257" value="28" style="shape=partialRectangle;html=1;whiteSpace=wrap;connectable=0;fillColor=default;top=0;left=0;bottom=0;right=0;overflow=hidden;" vertex="1" parent="252">
                    <mxGeometry x="384" width="94" height="84" as="geometry">
                        <mxRectangle width="94" height="84" as="alternateBounds"/>
                    </mxGeometry>
                </mxCell>
                <mxCell id="258" value="29" style="shape=partialRectangle;html=1;whiteSpace=wrap;connectable=0;fillColor=default;top=0;left=0;bottom=0;right=0;overflow=hidden;" vertex="1" parent="252">
                    <mxGeometry x="478" width="95" height="84" as="geometry">
                        <mxRectangle width="95" height="84" as="alternateBounds"/>
                    </mxGeometry>
                </mxCell>
                <mxCell id="259" value="&lt;font&gt;30&lt;/font&gt;" style="shape=partialRectangle;html=1;whiteSpace=wrap;connectable=0;fillColor=default;top=0;left=0;bottom=0;right=0;overflow=hidden;fontColor=#000000;" vertex="1" parent="252">
                    <mxGeometry x="573" width="97" height="84" as="geometry">
                        <mxRectangle width="97" height="84" as="alternateBounds"/>
                    </mxGeometry>
                </mxCell>
                <mxCell id="260" value="" style="ellipse;whiteSpace=wrap;html=1;aspect=fixed;fillColor=default;shadow=0;" vertex="1" parent="1">
                    <mxGeometry x="290" y="683.75" width="47.5" height="47.5" as="geometry"/>
                </mxCell>
                <mxCell id="261" value="&amp;lt;" style="text;strokeColor=none;align=center;fillColor=none;html=1;verticalAlign=middle;whiteSpace=wrap;rounded=0;shadow=0;" vertex="1" parent="1">
                    <mxGeometry x="283.75" y="692.5" width="60" height="30" as="geometry"/>
                </mxCell>
                <mxCell id="262" value="" style="ellipse;whiteSpace=wrap;html=1;aspect=fixed;fillColor=default;shadow=0;" vertex="1" parent="1">
                    <mxGeometry x="486.25" y="683.75" width="47.5" height="47.5" as="geometry"/>
                </mxCell>
                <mxCell id="263" value="&amp;gt;" style="text;strokeColor=none;align=center;fillColor=none;html=1;verticalAlign=middle;whiteSpace=wrap;rounded=0;shadow=0;" vertex="1" parent="1">
                    <mxGeometry x="480" y="690" width="60" height="32.5" as="geometry"/>
                </mxCell>
                <mxCell id="63" value="" style="html=1;shadow=0;dashed=0;align=center;verticalAlign=middle;shape=mxgraph.arrows2.jumpInArrow;dy=15;dx=38;arrowHead=55;direction=east;flipV=0;flipH=1;fillColor=#000000;" vertex="1" parent="1">
                    <mxGeometry x="110" y="681.25" width="85" height="50" as="geometry"/>
                </mxCell>
                <mxCell id="376" value="" style="line;strokeWidth=2;direction=south;html=1;shadow=0;fontColor=#E6E6E6;fillColor=default;rotation=-60;" vertex="1" parent="1">
                    <mxGeometry x="102.70999999999998" y="632.5" width="10" height="90" as="geometry"/>
                </mxCell>
                <mxCell id="377" value="&lt;font style=&quot;font-size: 16px;&quot; color=&quot;#000000&quot;&gt;Return to current day, month, and year&lt;br&gt;&lt;br&gt;rgb (00, 00, 00)&amp;nbsp;&lt;/font&gt;" style="text;strokeColor=none;align=center;fillColor=none;html=1;verticalAlign=middle;whiteSpace=wrap;rounded=0;shadow=0;strokeWidth=0;fontColor=#E6E6E6;" vertex="1" parent="1">
                    <mxGeometry x="-170" y="602.5" width="282.71" height="30" as="geometry"/>
                </mxCell>
                <mxCell id="379" value="&lt;font color=&quot;#ffffff&quot;&gt;9&lt;/font&gt;" style="ellipse;whiteSpace=wrap;html=1;aspect=fixed;fillColor=#FF5959;shadow=0;strokeColor=#FF5959;" vertex="1" parent="1">
                    <mxGeometry x="391.25" y="240" width="47.5" height="47.5" as="geometry"/>
                </mxCell>
                <mxCell id="380" value="" style="line;strokeWidth=2;direction=south;html=1;shadow=0;fontColor=#E6E6E6;fillColor=default;rotation=-60;" vertex="1" parent="1">
                    <mxGeometry x="212.78" y="-65" width="10" height="430" as="geometry"/>
                </mxCell>
                <mxCell id="381" value="&lt;font style=&quot;font-size: 16px;&quot; color=&quot;#000000&quot;&gt;Selects current day&lt;br&gt;&lt;br&gt;rgb (255, 89, 89)&amp;nbsp;&lt;/font&gt;" style="text;strokeColor=none;align=center;fillColor=none;html=1;verticalAlign=middle;whiteSpace=wrap;rounded=0;shadow=0;strokeWidth=0;fontColor=#E6E6E6;" vertex="1" parent="1">
                    <mxGeometry x="-117.29000000000002" y="-10" width="260" height="30" as="geometry"/>
                </mxCell>
                <mxCell id="382" value="" style="verticalLabelPosition=bottom;shadow=0;dashed=0;align=center;html=1;verticalAlign=top;strokeWidth=1;shape=mxgraph.mockup.markup.curlyBrace;strokeColor=#999999;fontSize=16;fontColor=#FFFFFF;fillColor=#FF5959;" vertex="1" parent="1">
                    <mxGeometry x="290" y="10" width="230" height="20" as="geometry"/>
                </mxCell>
                <mxCell id="385" value="&lt;font color=&quot;#000000&quot;&gt;Centered&lt;/font&gt;" style="text;strokeColor=none;align=center;fillColor=none;html=1;verticalAlign=middle;whiteSpace=wrap;rounded=0;shadow=0;strokeWidth=1;fontSize=16;fontColor=#FFFFFF;" vertex="1" parent="1">
                    <mxGeometry x="378.75" y="-20" width="60" height="30" as="geometry"/>
                </mxCell>
                <mxCell id="390" value="" style="verticalLabelPosition=bottom;shadow=0;dashed=0;align=center;html=1;verticalAlign=top;strokeWidth=1;shape=mxgraph.mockup.markup.curlyBrace;strokeColor=#999999;fontSize=16;fontColor=#FFFFFF;fillColor=#FF5959;" vertex="1" parent="1">
                    <mxGeometry x="293.75" y="650" width="230" height="20" as="geometry"/>
                </mxCell>
                <mxCell id="391" value="&lt;font color=&quot;#000000&quot;&gt;Centered&lt;/font&gt;" style="text;strokeColor=none;align=center;fillColor=none;html=1;verticalAlign=middle;whiteSpace=wrap;rounded=0;shadow=0;strokeWidth=1;fontSize=16;fontColor=#FFFFFF;" vertex="1" parent="1">
                    <mxGeometry x="382.5" y="620" width="60" height="30" as="geometry"/>
                </mxCell>
                <mxCell id="392" value="2024" style="shape=table;startSize=70;container=1;collapsible=0;childLayout=tableLayout;fontStyle=1;align=center;rowLines=0;columnLines=0;strokeColor=none;" vertex="1" parent="1">
                    <mxGeometry x="-100" y="-650" width="428" height="528" as="geometry"/>
                </mxCell>
                <mxCell id="393" style="shape=tableRow;horizontal=0;startSize=0;swimlaneHead=0;swimlaneBody=0;top=0;left=0;bottom=0;right=0;collapsible=0;dropTarget=0;fillColor=none;points=[[0,0.5],[1,0.5]];portConstraint=eastwest;" vertex="1" parent="392">
                    <mxGeometry y="70" width="428" height="118" as="geometry"/>
                </mxCell>
                <mxCell id="394" value="Jan" style="shape=partialRectangle;html=1;whiteSpace=wrap;connectable=0;fillColor=default;top=0;left=0;bottom=0;right=0;overflow=hidden;strokeWidth=0;strokeColor=none;" vertex="1" parent="393">
                    <mxGeometry width="144" height="118" as="geometry">
                        <mxRectangle width="144" height="118" as="alternateBounds"/>
                    </mxGeometry>
                </mxCell>
                <mxCell id="395" value="Feb" style="shape=partialRectangle;html=1;whiteSpace=wrap;connectable=0;fillColor=default;top=0;left=0;bottom=0;right=0;overflow=hidden;strokeColor=none;" vertex="1" parent="393">
                    <mxGeometry x="144" width="138" height="118" as="geometry">
                        <mxRectangle width="138" height="118" as="alternateBounds"/>
                    </mxGeometry>
                </mxCell>
                <mxCell id="396" value="Mar" style="shape=partialRectangle;html=1;whiteSpace=wrap;connectable=0;fillColor=default;top=0;left=0;bottom=0;right=0;overflow=hidden;strokeColor=none;strokeWidth=0;" vertex="1" parent="393">
                    <mxGeometry x="282" width="146" height="118" as="geometry">
                        <mxRectangle width="146" height="118" as="alternateBounds"/>
                    </mxGeometry>
                </mxCell>
                <mxCell id="401" style="shape=tableRow;horizontal=0;startSize=0;swimlaneHead=0;swimlaneBody=0;top=0;left=0;bottom=0;right=0;collapsible=0;dropTarget=0;fillColor=none;points=[[0,0.5],[1,0.5]];portConstraint=eastwest;" vertex="1" parent="392">
                    <mxGeometry y="188" width="428" height="110" as="geometry"/>
                </mxCell>
                <mxCell id="402" value="&lt;font&gt;Apr&lt;/font&gt;" style="shape=partialRectangle;html=1;whiteSpace=wrap;connectable=0;fillColor=default;top=0;left=0;bottom=0;right=0;overflow=hidden;strokeWidth=0;strokeColor=none;fontColor=#000000;" vertex="1" parent="401">
                    <mxGeometry width="144" height="110" as="geometry">
                        <mxRectangle width="144" height="110" as="alternateBounds"/>
                    </mxGeometry>
                </mxCell>
                <mxCell id="403" value="&lt;font&gt;May&lt;/font&gt;" style="shape=partialRectangle;html=1;whiteSpace=wrap;connectable=0;fillColor=default;top=0;left=0;bottom=0;right=0;overflow=hidden;strokeColor=none;fontColor=#000000;" vertex="1" parent="401">
                    <mxGeometry x="144" width="138" height="110" as="geometry">
                        <mxRectangle width="138" height="110" as="alternateBounds"/>
                    </mxGeometry>
                </mxCell>
                <mxCell id="404" value="Jun" style="shape=partialRectangle;html=1;whiteSpace=wrap;connectable=0;fillColor=default;top=0;left=0;bottom=0;right=0;overflow=hidden;strokeColor=none;strokeWidth=0;" vertex="1" parent="401">
                    <mxGeometry x="282" width="146" height="110" as="geometry">
                        <mxRectangle width="146" height="110" as="alternateBounds"/>
                    </mxGeometry>
                </mxCell>
                <mxCell id="409" value="" style="shape=tableRow;horizontal=0;startSize=0;swimlaneHead=0;swimlaneBody=0;top=0;left=0;bottom=0;right=0;collapsible=0;dropTarget=0;fillColor=none;points=[[0,0.5],[1,0.5]];portConstraint=eastwest;" vertex="1" parent="392">
                    <mxGeometry y="298" width="428" height="115" as="geometry"/>
                </mxCell>
                <mxCell id="410" value="Jul" style="shape=partialRectangle;html=1;whiteSpace=wrap;connectable=0;fillColor=default;top=0;left=0;bottom=0;right=0;overflow=hidden;strokeColor=none;strokeWidth=0;" vertex="1" parent="409">
                    <mxGeometry width="144" height="115" as="geometry">
                        <mxRectangle width="144" height="115" as="alternateBounds"/>
                    </mxGeometry>
                </mxCell>
                <mxCell id="411" value="Aug" style="shape=partialRectangle;html=1;whiteSpace=wrap;connectable=0;fillColor=default;top=0;left=0;bottom=0;right=0;overflow=hidden;" vertex="1" parent="409">
                    <mxGeometry x="144" width="138" height="115" as="geometry">
                        <mxRectangle width="138" height="115" as="alternateBounds"/>
                    </mxGeometry>
                </mxCell>
                <mxCell id="412" value="Sep" style="shape=partialRectangle;html=1;whiteSpace=wrap;connectable=0;fillColor=default;top=0;left=0;bottom=0;right=0;overflow=hidden;" vertex="1" parent="409">
                    <mxGeometry x="282" width="146" height="115" as="geometry">
                        <mxRectangle width="146" height="115" as="alternateBounds"/>
                    </mxGeometry>
                </mxCell>
                <mxCell id="453" style="shape=tableRow;horizontal=0;startSize=0;swimlaneHead=0;swimlaneBody=0;top=0;left=0;bottom=0;right=0;collapsible=0;dropTarget=0;fillColor=none;points=[[0,0.5],[1,0.5]];portConstraint=eastwest;" vertex="1" parent="392">
                    <mxGeometry y="413" width="428" height="115" as="geometry"/>
                </mxCell>
                <mxCell id="454" value="Oct" style="shape=partialRectangle;html=1;whiteSpace=wrap;connectable=0;fillColor=default;top=0;left=0;bottom=0;right=0;overflow=hidden;strokeColor=none;strokeWidth=0;" vertex="1" parent="453">
                    <mxGeometry width="144" height="115" as="geometry">
                        <mxRectangle width="144" height="115" as="alternateBounds"/>
                    </mxGeometry>
                </mxCell>
                <mxCell id="455" value="Nov" style="shape=partialRectangle;html=1;whiteSpace=wrap;connectable=0;fillColor=default;top=0;left=0;bottom=0;right=0;overflow=hidden;" vertex="1" parent="453">
                    <mxGeometry x="144" width="138" height="115" as="geometry">
                        <mxRectangle width="138" height="115" as="alternateBounds"/>
                    </mxGeometry>
                </mxCell>
                <mxCell id="456" value="Dec" style="shape=partialRectangle;html=1;whiteSpace=wrap;connectable=0;fillColor=default;top=0;left=0;bottom=0;right=0;overflow=hidden;" vertex="1" parent="453">
                    <mxGeometry x="282" width="146" height="115" as="geometry">
                        <mxRectangle width="146" height="115" as="alternateBounds"/>
                    </mxGeometry>
                </mxCell>
                <mxCell id="441" value="" style="ellipse;whiteSpace=wrap;html=1;aspect=fixed;fillColor=default;shadow=0;" vertex="1" parent="1">
                    <mxGeometry x="16.25" y="-630" width="47.5" height="47.5" as="geometry"/>
                </mxCell>
                <mxCell id="442" value="&amp;lt;" style="text;strokeColor=none;align=center;fillColor=none;html=1;verticalAlign=middle;whiteSpace=wrap;rounded=0;shadow=0;" vertex="1" parent="1">
                    <mxGeometry x="10" y="-620" width="60" height="26.25" as="geometry"/>
                </mxCell>
                <mxCell id="443" value="" style="ellipse;whiteSpace=wrap;html=1;aspect=fixed;fillColor=default;shadow=0;" vertex="1" parent="1">
                    <mxGeometry x="169.03000000000003" y="-630" width="47.5" height="47.5" as="geometry"/>
                </mxCell>
                <mxCell id="444" value="&amp;gt;" style="text;strokeColor=none;align=center;fillColor=none;html=1;verticalAlign=middle;whiteSpace=wrap;rounded=0;shadow=0;" vertex="1" parent="1">
                    <mxGeometry x="162.78000000000003" y="-623.75" width="60" height="32.5" as="geometry"/>
                </mxCell>
                <mxCell id="448" value="" style="verticalLabelPosition=bottom;shadow=0;dashed=0;align=center;html=1;verticalAlign=top;strokeWidth=1;shape=mxgraph.mockup.markup.curlyBrace;strokeColor=#999999;fontSize=16;fontColor=#FFFFFF;fillColor=#FF5959;" vertex="1" parent="1">
                    <mxGeometry x="19.000000000000043" y="-670" width="190" height="20" as="geometry"/>
                </mxCell>
                <mxCell id="449" value="&lt;font color=&quot;#000000&quot;&gt;Centered&lt;/font&gt;" style="text;strokeColor=none;align=center;fillColor=none;html=1;verticalAlign=middle;whiteSpace=wrap;rounded=0;shadow=0;strokeWidth=1;fontSize=16;fontColor=#FFFFFF;" vertex="1" parent="1">
                    <mxGeometry x="83.99999999999999" y="-710" width="60" height="30" as="geometry"/>
                </mxCell>
                <mxCell id="541" value="" style="html=1;shadow=0;dashed=0;align=center;verticalAlign=middle;shape=mxgraph.arrows2.jumpInArrow;dy=15;dx=38;arrowHead=55;direction=east;flipV=0;flipH=1;fillColor=#000000;" vertex="1" parent="1">
                    <mxGeometry x="-84.70999999999998" y="-645.62" width="85" height="50" as="geometry"/>
                </mxCell>
                <mxCell id="542" value="" style="line;strokeWidth=2;direction=south;html=1;shadow=0;fontColor=#E6E6E6;fillColor=default;rotation=-60;" vertex="1" parent="1">
                    <mxGeometry x="-92" y="-694.37" width="10" height="90" as="geometry"/>
                </mxCell>
                <mxCell id="543" value="&lt;font style=&quot;font-size: 16px;&quot; color=&quot;#000000&quot;&gt;Return to current day, month, and year&lt;br&gt;&lt;br&gt;rgb (00, 00, 00)&amp;nbsp;&lt;/font&gt;" style="text;strokeColor=none;align=center;fillColor=none;html=1;verticalAlign=middle;whiteSpace=wrap;rounded=0;shadow=0;strokeWidth=0;fontColor=#E6E6E6;" vertex="1" parent="1">
                    <mxGeometry x="-330" y="-700" width="278" height="30" as="geometry"/>
                </mxCell>
                <mxCell id="563" value="" style="shape=table;startSize=70;container=1;collapsible=0;childLayout=tableLayout;fontStyle=1;align=center;rowLines=0;columnLines=0;strokeColor=none;" vertex="1" parent="1">
                    <mxGeometry x="-750" y="-1320" width="428" height="413" as="geometry"/>
                </mxCell>
                <mxCell id="564" style="shape=tableRow;horizontal=0;startSize=0;swimlaneHead=0;swimlaneBody=0;top=0;left=0;bottom=0;right=0;collapsible=0;dropTarget=0;fillColor=none;points=[[0,0.5],[1,0.5]];portConstraint=eastwest;" vertex="1" parent="563">
                    <mxGeometry y="70" width="428" height="118" as="geometry"/>
                </mxCell>
                <mxCell id="565" value="2020" style="shape=partialRectangle;html=1;whiteSpace=wrap;connectable=0;fillColor=default;top=0;left=0;bottom=0;right=0;overflow=hidden;strokeWidth=0;strokeColor=none;" vertex="1" parent="564">
                    <mxGeometry width="144" height="118" as="geometry">
                        <mxRectangle width="144" height="118" as="alternateBounds"/>
                    </mxGeometry>
                </mxCell>
                <mxCell id="566" value="2021" style="shape=partialRectangle;html=1;whiteSpace=wrap;connectable=0;fillColor=default;top=0;left=0;bottom=0;right=0;overflow=hidden;strokeColor=none;" vertex="1" parent="564">
                    <mxGeometry x="144" width="138" height="118" as="geometry">
                        <mxRectangle width="138" height="118" as="alternateBounds"/>
                    </mxGeometry>
                </mxCell>
                <mxCell id="567" value="2022" style="shape=partialRectangle;html=1;whiteSpace=wrap;connectable=0;fillColor=default;top=0;left=0;bottom=0;right=0;overflow=hidden;strokeColor=none;strokeWidth=0;" vertex="1" parent="564">
                    <mxGeometry x="282" width="146" height="118" as="geometry">
                        <mxRectangle width="146" height="118" as="alternateBounds"/>
                    </mxGeometry>
                </mxCell>
                <mxCell id="568" style="shape=tableRow;horizontal=0;startSize=0;swimlaneHead=0;swimlaneBody=0;top=0;left=0;bottom=0;right=0;collapsible=0;dropTarget=0;fillColor=none;points=[[0,0.5],[1,0.5]];portConstraint=eastwest;" vertex="1" parent="563">
                    <mxGeometry y="188" width="428" height="110" as="geometry"/>
                </mxCell>
                <mxCell id="569" value="&lt;font&gt;2023&lt;/font&gt;" style="shape=partialRectangle;html=1;whiteSpace=wrap;connectable=0;fillColor=default;top=0;left=0;bottom=0;right=0;overflow=hidden;strokeWidth=0;strokeColor=none;fontColor=#000000;" vertex="1" parent="568">
                    <mxGeometry width="144" height="110" as="geometry">
                        <mxRectangle width="144" height="110" as="alternateBounds"/>
                    </mxGeometry>
                </mxCell>
                <mxCell id="570" value="&lt;font&gt;2024&lt;/font&gt;" style="shape=partialRectangle;html=1;whiteSpace=wrap;connectable=0;fillColor=default;top=0;left=0;bottom=0;right=0;overflow=hidden;strokeColor=none;fontColor=#000000;" vertex="1" parent="568">
                    <mxGeometry x="144" width="138" height="110" as="geometry">
                        <mxRectangle width="138" height="110" as="alternateBounds"/>
                    </mxGeometry>
                </mxCell>
                <mxCell id="571" value="2025" style="shape=partialRectangle;html=1;whiteSpace=wrap;connectable=0;fillColor=default;top=0;left=0;bottom=0;right=0;overflow=hidden;strokeColor=none;strokeWidth=0;" vertex="1" parent="568">
                    <mxGeometry x="282" width="146" height="110" as="geometry">
                        <mxRectangle width="146" height="110" as="alternateBounds"/>
                    </mxGeometry>
                </mxCell>
                <mxCell id="572" value="" style="shape=tableRow;horizontal=0;startSize=0;swimlaneHead=0;swimlaneBody=0;top=0;left=0;bottom=0;right=0;collapsible=0;dropTarget=0;fillColor=none;points=[[0,0.5],[1,0.5]];portConstraint=eastwest;" vertex="1" parent="563">
                    <mxGeometry y="298" width="428" height="115" as="geometry"/>
                </mxCell>
                <mxCell id="573" value="2026" style="shape=partialRectangle;html=1;whiteSpace=wrap;connectable=0;fillColor=default;top=0;left=0;bottom=0;right=0;overflow=hidden;strokeColor=none;strokeWidth=0;" vertex="1" parent="572">
                    <mxGeometry width="144" height="115" as="geometry">
                        <mxRectangle width="144" height="115" as="alternateBounds"/>
                    </mxGeometry>
                </mxCell>
                <mxCell id="574" value="2027" style="shape=partialRectangle;html=1;whiteSpace=wrap;connectable=0;fillColor=default;top=0;left=0;bottom=0;right=0;overflow=hidden;" vertex="1" parent="572">
                    <mxGeometry x="144" width="138" height="115" as="geometry">
                        <mxRectangle width="138" height="115" as="alternateBounds"/>
                    </mxGeometry>
                </mxCell>
                <mxCell id="575" value="2027" style="shape=partialRectangle;html=1;whiteSpace=wrap;connectable=0;fillColor=default;top=0;left=0;bottom=0;right=0;overflow=hidden;" vertex="1" parent="572">
                    <mxGeometry x="282" width="146" height="115" as="geometry">
                        <mxRectangle width="146" height="115" as="alternateBounds"/>
                    </mxGeometry>
                </mxCell>
                <mxCell id="576" style="shape=tableRow;horizontal=0;startSize=0;swimlaneHead=0;swimlaneBody=0;top=0;left=0;bottom=0;right=0;collapsible=0;dropTarget=0;fillColor=none;points=[[0,0.5],[1,0.5]];portConstraint=eastwest;" vertex="1" parent="563">
                    <mxGeometry y="413" width="428" as="geometry"/>
                </mxCell>
                <mxCell id="577" value="" style="shape=partialRectangle;html=1;whiteSpace=wrap;connectable=0;fillColor=default;top=0;left=0;bottom=0;right=0;overflow=hidden;strokeColor=none;strokeWidth=0;" vertex="1" parent="576">
                    <mxGeometry width="144" as="geometry">
                        <mxRectangle width="144" as="alternateBounds"/>
                    </mxGeometry>
                </mxCell>
                <mxCell id="578" value="" style="shape=partialRectangle;html=1;whiteSpace=wrap;connectable=0;fillColor=default;top=0;left=0;bottom=0;right=0;overflow=hidden;" vertex="1" parent="576">
                    <mxGeometry x="144" width="138" as="geometry">
                        <mxRectangle width="138" as="alternateBounds"/>
                    </mxGeometry>
                </mxCell>
                <mxCell id="579" value="" style="shape=partialRectangle;html=1;whiteSpace=wrap;connectable=0;fillColor=default;top=0;left=0;bottom=0;right=0;overflow=hidden;" vertex="1" parent="576">
                    <mxGeometry x="282" width="146" as="geometry">
                        <mxRectangle width="146" as="alternateBounds"/>
                    </mxGeometry>
                </mxCell>
                <mxCell id="580" value="" style="ellipse;whiteSpace=wrap;html=1;aspect=fixed;fillColor=default;shadow=0;" vertex="1" parent="1">
                    <mxGeometry x="-633.75" y="-1300" width="47.5" height="47.5" as="geometry"/>
                </mxCell>
                <mxCell id="581" value="&amp;lt;" style="text;strokeColor=none;align=center;fillColor=none;html=1;verticalAlign=middle;whiteSpace=wrap;rounded=0;shadow=0;" vertex="1" parent="1">
                    <mxGeometry x="-640" y="-1290" width="60" height="26.25" as="geometry"/>
                </mxCell>
                <mxCell id="582" value="" style="ellipse;whiteSpace=wrap;html=1;aspect=fixed;fillColor=default;shadow=0;" vertex="1" parent="1">
                    <mxGeometry x="-480.97" y="-1300" width="47.5" height="47.5" as="geometry"/>
                </mxCell>
                <mxCell id="583" value="&amp;gt;" style="text;strokeColor=none;align=center;fillColor=none;html=1;verticalAlign=middle;whiteSpace=wrap;rounded=0;shadow=0;" vertex="1" parent="1">
                    <mxGeometry x="-487.22" y="-1293.75" width="60" height="32.5" as="geometry"/>
                </mxCell>
                <mxCell id="584" value="" style="verticalLabelPosition=bottom;shadow=0;dashed=0;align=center;html=1;verticalAlign=top;strokeWidth=1;shape=mxgraph.mockup.markup.curlyBrace;strokeColor=#999999;fontSize=16;fontColor=#FFFFFF;fillColor=#FF5959;" vertex="1" parent="1">
                    <mxGeometry x="-631" y="-1340" width="190" height="20" as="geometry"/>
                </mxCell>
                <mxCell id="585" value="&lt;font color=&quot;#000000&quot;&gt;Centered&lt;/font&gt;" style="text;strokeColor=none;align=center;fillColor=none;html=1;verticalAlign=middle;whiteSpace=wrap;rounded=0;shadow=0;strokeWidth=1;fontSize=16;fontColor=#FFFFFF;" vertex="1" parent="1">
                    <mxGeometry x="-566" y="-1380" width="60" height="30" as="geometry"/>
                </mxCell>
                <mxCell id="586" value="" style="html=1;shadow=0;dashed=0;align=center;verticalAlign=middle;shape=mxgraph.arrows2.jumpInArrow;dy=15;dx=38;arrowHead=55;direction=east;flipV=0;flipH=1;fillColor=#000000;" vertex="1" parent="1">
                    <mxGeometry x="-734.71" y="-1315.62" width="85" height="50" as="geometry"/>
                </mxCell>
                <mxCell id="587" value="" style="line;strokeWidth=2;direction=south;html=1;shadow=0;fontColor=#E6E6E6;fillColor=default;rotation=-60;" vertex="1" parent="1">
                    <mxGeometry x="-742" y="-1364.37" width="10" height="90" as="geometry"/>
                </mxCell>
                <mxCell id="588" value="&lt;font style=&quot;font-size: 16px;&quot; color=&quot;#000000&quot;&gt;Return to current day, month, and year&lt;br&gt;&lt;br&gt;rgb (00, 00, 00)&amp;nbsp;&lt;/font&gt;" style="text;strokeColor=none;align=center;fillColor=none;html=1;verticalAlign=middle;whiteSpace=wrap;rounded=0;shadow=0;strokeWidth=0;fontColor=#E6E6E6;" vertex="1" parent="1">
                    <mxGeometry x="-980" y="-1364.37" width="278" height="30" as="geometry"/>
                </mxCell>
            </root>
        </mxGraphModel>
    </diagram>
</mxfile>